<mxfile host="app.diagrams.net" modified="2024-05-16T05:53:00.069Z" agent="Mozilla/5.0 (X11; Linux x86_64) AppleWebKit/537.36 (KHTML, like Gecko) Chrome/113.0.0.0 Safari/537.36" version="22.1.16" etag="ntl58Cjls16pUfkYOAqv" type="github">
  <diagram name="Page-1" id="1T8nS3-H_Zj8YaDaIl3L">
    <mxGraphModel>
      <root>
        <mxCell id="0" />
        <mxCell id="1" parent="0" />
      </root>
    </mxGraphModel>
  </diagram>
</mxfile>
